<svg width="406" height="121" viewBox="0 0 406 121" fill="none" xmlns="http://www.w3.org/2000/svg">
<path fill-rule="evenodd" clip-rule="evenodd" d="M155.224 84.9192C149.704 84.9192 149.309 85.048 148.915 89.8159V90.2025C148.389 94.9703 148.652 95.0992 154.172 95.0992H154.698C155.224 95.0992 155.355 95.3569 155.355 95.7435L155.224 97.0321H153.647C146.944 97.0321 146.024 96.1301 146.681 90.0736V89.687C147.338 83.6306 148.521 82.8574 155.224 82.8574H156.801L156.67 84.146C156.67 84.6615 156.407 84.7903 155.881 84.7903H155.224V84.9192Z" fill="white"/>
<path fill-rule="evenodd" clip-rule="evenodd" d="M167.579 82.9862L167.448 84.2748C167.448 84.7903 167.185 84.9191 166.659 84.9191H160.745L160.35 88.6561H166.528L166.396 89.9447C166.396 90.4601 166.133 90.589 165.608 90.589H160.087L159.562 94.9702H166.133L166.002 96.2588C166.002 96.7743 165.739 96.9031 165.213 96.9031H157.196L158.642 83.3728C158.642 82.8574 158.904 82.7285 159.43 82.7285H167.579V82.9862Z" fill="white"/>
<path fill-rule="evenodd" clip-rule="evenodd" d="M178.751 83.6306C178.751 83.1151 179.014 82.9863 179.54 82.9863H181.117L179.54 97.161H177.174C176.517 97.161 176.254 97.0321 176.122 96.6455L171.916 85.8212L170.733 96.3878C170.733 96.9032 170.471 97.0321 169.945 97.0321H168.368L169.945 82.8574H172.311C172.968 82.8574 173.099 82.9863 173.231 83.3729L177.437 94.0683L178.751 83.6306Z" fill="white"/>
<path fill-rule="evenodd" clip-rule="evenodd" d="M186.899 84.919H182.956L183.087 83.6304C183.087 83.1149 183.35 82.9861 183.876 82.9861H193.471L193.339 84.2747C193.339 84.7901 193.077 84.919 192.551 84.919H189.133L187.951 96.3876C187.951 96.903 187.688 97.0319 187.162 97.0319H185.585L186.899 84.919Z" fill="white"/>
<path fill-rule="evenodd" clip-rule="evenodd" d="M200.568 82.9863C204.38 82.9863 205.037 84.4037 204.774 87.4964C204.511 90.0736 203.722 91.3622 201.488 91.8777L203.065 94.9703C203.197 95.3569 203.46 95.7435 203.328 96.2589L203.197 97.0321H202.145C201.619 97.0321 201.357 96.7744 201.094 96.5167L198.991 92.0065H196.625L196.099 96.3878C196.099 96.9032 195.836 97.0321 195.311 97.0321H193.733L195.179 83.5017C195.179 82.9863 195.442 82.8574 195.968 82.8574H200.568V82.9863ZM197.414 84.9192L196.888 89.9448H199.779C202.014 89.9448 202.277 89.4293 202.408 87.3675C202.671 85.3058 202.539 84.7903 200.305 84.7903H197.414V84.9192Z" fill="white"/>
<path fill-rule="evenodd" clip-rule="evenodd" d="M205.301 96.0012C205.301 95.6146 205.432 95.228 205.563 94.8415L210.295 83.8883C210.689 82.9863 210.952 82.8574 212.529 82.8574C214.238 82.8574 214.37 82.9863 214.632 83.8883L216.998 94.8415C217.13 95.228 217.13 95.6146 216.998 96.0012L216.867 97.0321H216.078C215.027 97.0321 214.895 96.7744 214.764 96.0012L214.238 93.424H208.455L207.404 96.0012C207.141 96.7744 207.009 97.0321 205.958 97.0321H205.169L205.301 96.0012ZM213.975 91.6199L212.529 84.7903H212.267L209.375 91.6199H213.975Z" fill="white"/>
<path fill-rule="evenodd" clip-rule="evenodd" d="M220.02 97.0321C219.495 97.0321 219.363 96.7744 219.363 96.3878L220.809 82.8574H222.386C222.781 82.8574 223.043 83.1151 222.912 83.5017L221.729 94.9703H227.249C227.775 94.9703 227.906 95.228 227.906 95.6146L227.775 96.9032H220.02V97.0321Z" fill="white"/>
<path fill-rule="evenodd" clip-rule="evenodd" d="M234.741 96.0012C234.741 95.6146 234.873 95.228 235.004 94.8415L239.736 83.8883C240.13 82.9863 240.393 82.8574 241.97 82.8574C243.679 82.8574 243.81 82.9863 244.073 83.8883L246.439 94.8415C246.57 95.228 246.57 95.6146 246.439 96.0012L246.307 97.0321H245.519C244.467 97.0321 244.336 96.7744 244.205 96.0012L243.679 93.424H237.896L236.844 96.0012C236.581 96.7744 236.45 97.0321 235.398 97.0321H234.61L234.741 96.0012ZM243.416 91.6199L241.97 84.7903H241.707L238.816 91.6199H243.416Z" fill="white"/>
<path fill-rule="evenodd" clip-rule="evenodd" d="M252.616 95.099C255.639 95.099 255.902 94.7125 256.165 92.7795L256.296 91.4909L251.696 90.5889C249.987 90.2023 249.199 89.8157 249.462 87.4963C249.856 83.8882 251.17 83.115 255.113 83.115H258.925L258.793 84.4036C258.793 84.919 258.531 85.0479 258.005 85.0479H254.85C252.09 85.0479 251.959 85.4345 251.696 87.3674L251.565 88.3983L256.559 89.4292C258.136 89.6869 258.531 90.3312 258.268 92.7795C257.873 96.3876 256.165 97.1608 252.353 97.1608H248.41L248.542 95.8722C248.542 95.3568 248.804 95.2279 249.33 95.2279H252.616V95.099Z" fill="white"/>
<path fill-rule="evenodd" clip-rule="evenodd" d="M261.554 83.6304C261.554 83.1149 261.817 82.9861 262.342 82.9861H263.92L262.474 96.5164C262.474 97.0319 262.211 97.1607 261.685 97.1607H260.108L261.554 83.6304Z" fill="white"/>
<path fill-rule="evenodd" clip-rule="evenodd" d="M264.708 96.0012C264.708 95.6146 264.839 95.228 264.971 94.8415L269.702 83.8883C270.097 82.9863 270.359 82.8574 271.937 82.8574C273.645 82.8574 273.777 82.9863 274.04 83.8883L276.405 94.8415C276.537 95.228 276.537 95.6146 276.405 96.0012L276.274 97.0321H275.485C274.434 97.0321 274.302 96.7744 274.171 96.0012L273.645 93.424H268.125L267.074 96.0012C266.811 96.7744 266.679 97.0321 265.628 97.0321H264.839L264.708 96.0012ZM273.514 91.6199L272.068 84.7903H271.805L268.914 91.6199H273.514Z" fill="white"/>
<path fill-rule="evenodd" clip-rule="evenodd" d="M152.99 106.696C156.801 106.696 157.459 107.985 157.064 111.464C156.67 114.943 155.75 116.232 151.938 116.232H149.047L148.652 120.227C148.652 120.742 148.39 120.871 147.864 120.871H146.287L147.732 107.341C147.732 106.825 147.995 106.696 148.521 106.696H152.99ZM149.704 108.758L149.178 114.17H152.07C154.304 114.17 154.436 113.912 154.698 111.464C154.961 109.145 154.83 108.758 152.595 108.758H149.704Z" fill="white"/>
<path fill-rule="evenodd" clip-rule="evenodd" d="M169.551 112.882L169.419 114.557C168.894 119.84 167.316 120.871 163.373 120.871C159.43 120.871 158.116 119.84 158.773 114.557L158.905 112.882C159.43 107.598 161.008 106.567 164.951 106.567C168.762 106.567 170.077 107.598 169.551 112.882ZM167.316 112.882C167.711 108.887 167.448 108.5 164.688 108.5C161.928 108.5 161.533 108.758 161.139 112.882L161.008 114.557C160.613 118.551 160.876 118.938 163.636 118.938C166.396 118.938 166.791 118.68 167.185 114.557L167.316 112.882Z" fill="white"/>
<path fill-rule="evenodd" clip-rule="evenodd" d="M174.808 118.81C177.831 118.81 178.094 118.423 178.357 116.49L178.488 115.202L173.888 114.3C172.179 113.913 171.391 113.526 171.654 111.207C172.048 107.599 173.362 106.826 177.305 106.826H181.117L180.985 108.114C180.985 108.63 180.722 108.759 180.197 108.759H177.042C174.282 108.759 174.151 109.145 173.888 111.078L173.756 112.109L178.751 113.14C180.328 113.398 180.722 114.042 180.46 116.49C180.065 120.098 178.357 120.871 174.545 120.871H170.602L170.733 119.583C170.733 119.067 170.996 118.939 171.522 118.939H174.808V118.81Z" fill="white"/>
<path fill-rule="evenodd" clip-rule="evenodd" d="M186.504 108.759H182.561L182.692 107.47C182.692 106.955 182.955 106.826 183.481 106.826H193.076L192.944 108.114C192.944 108.63 192.682 108.759 192.156 108.759H188.738L187.556 120.227C187.556 120.743 187.293 120.871 186.767 120.871H185.19L186.504 108.759Z" fill="white"/>
<path fill-rule="evenodd" clip-rule="evenodd" d="M191.499 119.84C191.499 119.453 191.63 119.067 191.762 118.68L196.494 107.727C196.888 106.825 197.151 106.696 198.728 106.696C200.437 106.696 200.568 106.825 200.831 107.727L203.197 118.68C203.328 119.067 203.328 119.453 203.197 119.84L203.065 120.871H202.408C201.357 120.871 201.225 120.613 201.094 119.84L200.568 117.263H194.785L193.733 119.84C193.471 120.613 193.339 120.871 192.288 120.871H191.499V119.84ZM200.174 115.459L198.728 108.629H198.465L195.573 115.459H200.174Z" fill="white"/>
<path fill-rule="evenodd" clip-rule="evenodd" d="M206.219 120.871C205.694 120.871 205.562 120.613 205.562 120.227L207.008 106.696H208.585C208.98 106.696 209.242 106.954 209.111 107.341L207.928 118.809H213.448C213.974 118.809 214.105 119.067 214.105 119.453L213.974 120.742H206.219V120.871Z" fill="white"/>
<path fill-rule="evenodd" clip-rule="evenodd" d="M224.883 118.81C227.906 118.81 228.169 118.423 228.432 116.49L228.564 115.202L223.963 114.3C222.255 113.913 221.466 113.526 221.729 111.207C222.123 107.599 223.438 106.826 227.381 106.826H231.192L231.061 108.114C231.061 108.63 230.798 108.759 230.272 108.759H227.118C224.358 108.759 224.226 109.145 223.963 111.078L223.832 112.109L228.826 113.14C230.404 113.398 230.798 114.042 230.535 116.49C230.141 120.098 228.432 120.871 224.621 120.871H220.677L220.809 119.583C220.809 119.067 221.072 118.939 221.598 118.939H224.883V118.81Z" fill="white"/>
<path fill-rule="evenodd" clip-rule="evenodd" d="M242.759 106.696L242.628 107.985C242.628 108.5 242.365 108.629 241.839 108.629H235.925L235.53 112.366H241.708L241.576 113.655C241.576 114.17 241.314 114.299 240.788 114.299H235.268L234.742 118.68H241.314L241.182 119.969C241.182 120.485 240.919 120.613 240.393 120.613H232.376L233.822 107.083C233.822 106.568 234.085 106.439 234.61 106.439H242.759V106.696Z" fill="white"/>
<path fill-rule="evenodd" clip-rule="evenodd" d="M250.382 106.696C254.194 106.696 254.851 108.114 254.588 111.206C254.325 113.784 253.537 115.072 251.302 115.588L252.879 118.68C253.011 119.067 253.274 119.453 253.142 119.969L253.011 120.742H251.959C251.434 120.742 251.171 120.484 250.908 120.227L248.805 115.717H246.439L245.913 120.098C245.913 120.613 245.651 120.742 245.125 120.742H243.548L244.993 107.212C244.993 106.696 245.256 106.567 245.782 106.567H250.382V106.696ZM247.228 108.758L246.702 113.784H249.594C251.828 113.784 252.091 113.268 252.222 111.206C252.485 109.145 252.354 108.629 250.119 108.629H247.228V108.758Z" fill="white"/>
<path fill-rule="evenodd" clip-rule="evenodd" d="M259.057 119.84L256.56 108.887C256.428 108.5 256.428 108.114 256.428 107.727L256.56 106.696H257.48C258.4 106.696 258.531 106.954 258.794 107.727L261.16 119.067H261.423L266.155 107.727C266.417 106.954 266.68 106.696 267.732 106.696H268.52L268.389 107.727C268.389 108.243 268.258 108.5 268.126 108.887L263.263 119.84C262.869 120.742 262.737 120.871 261.16 120.871C259.32 120.871 259.189 120.742 259.057 119.84Z" fill="white"/>
<path fill-rule="evenodd" clip-rule="evenodd" d="M270.623 107.341C270.623 106.825 270.886 106.696 271.412 106.696H272.989L271.543 120.227C271.543 120.742 271.28 120.871 270.754 120.871H269.177L270.623 107.341Z" fill="white"/>
<path fill-rule="evenodd" clip-rule="evenodd" d="M295.727 106.696L295.596 107.985C295.596 108.5 295.333 108.629 294.807 108.629H288.893L288.498 112.366H294.676L294.544 113.655C294.544 114.17 294.282 114.299 293.756 114.299H288.236L287.71 118.68H294.282L294.15 119.969C294.15 120.485 293.887 120.613 293.361 120.613H285.344L286.79 107.083C286.79 106.568 287.053 106.439 287.578 106.439H295.727V106.696Z" fill="white"/>
<path fill-rule="evenodd" clip-rule="evenodd" d="M302.298 71.2599H259.188L259.845 63.0128H302.955C311.63 63.0128 319.385 56.0543 320.042 47.5495L322.013 23.8392C323.065 10.6954 334.894 0 348.3 0H391.673L391.016 8.24707H347.643C338.968 8.24707 331.214 15.2055 330.556 23.7103L328.585 47.4207C327.402 60.5644 315.573 71.2599 302.298 71.2599Z" fill="white"/>
<path fill-rule="evenodd" clip-rule="evenodd" d="M53.6245 51.6731C52.7045 62.3685 60.9848 71.131 71.8939 71.131H116.581L120.525 62.8839H72.6825C66.3736 62.8839 61.642 57.8584 62.1678 51.6731V50.8999H53.756L53.6245 51.6731Z" fill="white"/>
<path fill-rule="evenodd" clip-rule="evenodd" d="M109.222 105.021L116.845 108.114L144.972 50.8999H135.772L109.222 105.021Z" fill="white"/>
<path fill-rule="evenodd" clip-rule="evenodd" d="M283.241 0H235.662L232.507 37.7561H204.118L195.969 12.3706C193.603 4.8967 186.768 0 178.488 0H174.414C166.265 0 158.641 4.76784 154.961 12.2417L142.344 37.7561H63.2202L64.666 19.5868C65.1918 13.4015 70.712 8.37593 77.0208 8.37593H133.8L134.458 0.12886H77.8094C66.9004 0.12886 57.1743 8.89137 56.2542 19.5868L54.8085 37.7561H14.8525L14.1953 46.0032H231.85L230.404 62.8839H219.233C214.895 62.8839 211.347 60.3067 210.032 56.4409L208.324 50.8999H199.255L202.015 59.4047C204.249 66.492 210.821 71.131 218.575 71.131H238.159L240.262 45.8743H284.687C295.07 45.8743 304.27 37.4984 305.19 27.3184L305.453 23.5815C306.636 10.6954 296.516 0 283.241 0ZM151.413 37.7561L162.453 15.3344C164.556 11.082 168.893 8.24707 173.625 8.24707H177.699C182.431 8.24707 186.374 11.082 187.688 15.3344L194.786 37.6273H151.413V37.7561ZM297.042 23.8392L296.779 27.5761C296.253 33.246 291.258 37.885 285.475 37.885H241.051L243.416 8.50479H282.584C291.258 8.24707 297.699 15.2055 297.042 23.8392Z" fill="white"/>
<path fill-rule="evenodd" clip-rule="evenodd" d="M110.537 120.742H101.599L107.382 108.758L114.874 111.851L110.537 120.742Z" fill="white"/>
<path fill-rule="evenodd" clip-rule="evenodd" d="M9.72612 46.0029H0L0.657171 37.7559H10.3833L9.72612 46.0029Z" fill="white"/>
<path fill-rule="evenodd" clip-rule="evenodd" d="M405.211 8.24707H395.485L396.273 0H406L405.211 8.24707Z" fill="white"/>
<path fill-rule="evenodd" clip-rule="evenodd" d="M283.24 108.372C277.72 108.372 277.325 108.5 276.931 113.268V113.655C276.405 118.423 276.668 118.552 282.188 118.552H282.714C283.24 118.552 283.371 118.809 283.371 119.196L283.24 120.484H281.663C274.959 120.484 274.039 119.582 274.697 113.526V113.139C275.354 107.083 276.537 106.31 283.24 106.31H284.817L284.686 107.598C284.686 108.114 284.423 108.243 283.897 108.243H283.24V108.372Z" fill="white"/>
<path fill-rule="evenodd" clip-rule="evenodd" d="M289.155 83.5017C289.155 82.9862 289.418 82.8574 289.944 82.8574H291.521L289.944 97.032H287.578C286.921 97.032 286.658 96.9032 286.527 96.5166L282.321 85.6923L281.138 96.2589C281.138 96.7743 280.875 96.9032 280.349 96.9032H278.772L280.349 82.7285H282.715C283.372 82.7285 283.504 82.8574 283.635 83.244L287.841 93.9394L289.155 83.5017Z" fill="white"/>
</svg>
